# xmcd CD database file
#
# Track frame offsets:
#	182
#	16585
#	42735
#	61767
#	75962
#	93980
#	111345
#	143307
#	161297
#	176775
#	196000
#	212832
#
# Disc length: 3068 seconds
#
# Revision: 0
# Processed by: cddbd v1.4b41PL2 Copyright (c) Steve Scherf et al.
# Submitted via: Feurio! 1.61.1ß - http://www.feurio.com
#
DISCID=8c0bfa0c
DTITLE=Enzo Mucci Orchestral Boogie and Jean-Pierre Bertrand - Nashville 
DTITLE=Rendez-vous
DYEAR=1900
DGENRE=
TTITLE0=Boogie-Woogie ville
TTITLE1=Mississipi Mellow
TTITLE2=Pinetop's Boogie-Woogie
TTITLE3=First Train to Nashville
TTITLE4=4 'o'clock blues
TTITLE5=Yancey's stroll to Memphis
TTITLE6=Crazy keys wake up
TTITLE7=Birthday night
TTITLE8=Death ray Boogie
TTITLE9=Wabbash blues
TTITLE10=12th street rag for Bill
TTITLE11=In a little spanish town
EXTD=
EXTT0=
EXTT1=
EXTT2=
EXTT3=
EXTT4=
EXTT5=
EXTT6=
EXTT7=
EXTT8=
EXTT9=
EXTT10=
EXTT11=
PLAYORDER=
